# xmcd
#
# Track frame offsets:
#	150
#	12645
#	26435
#	38420
#	52890
#	67460
#	82582
#	96910
#	114477
#	134057
#	144872
#	164082
#	178500
#	192290
#	206455
#
# Disc length: 3050
#
# Revision: 2
# Processed by: cddbd v1.5.1PL0 Copyright (c) Steve Scherf et al.
# Submitted via: EasyCDDAExtractor 7.0.6.1
# Normalized: r1:DSETVAR1
#
DISCID=cc0be80f
DTITLE=Various Artist - Para Mamá, la mejor música de ayer y hoy
DYEAR=1996
DGENRE=Ballad
TTITLE0=Enrique Rocha - Caballera Blanca
TTITLE1=Denise De Kalafe - Señora, Señora
TTITLE2=Yaco Monti - Mamita, Mamá
TTITLE3=Javier Solís - Duerme
TTITLE4=José Luis Perales - La Madre
TTITLE5=Los Churumbeles de España - Cariño verdad
TTITLE6=Julio Jaramillo - Para ti madrecita
TTITLE7=Lucerito - Madre
TTITLE8=Roberto Carlos - Por ella
TTITLE9=Ricardo Ceratto - Sencilla y divina
TTITLE10=Alejandra Guzmán - Bye mamá
TTITLE11=Pimpinela - Cuando nos llamen abuelos
TTITLE12=Trío los Panchos - Madre bendita seas
TTITLE13=Los Dandy's - Las mañanitas a las madres
TTITLE14=Pedrito Fernández - Amor eterno
EXTD=
EXTT0=
EXTT1=
EXTT2=
EXTT3=
EXTT4=
EXTT5=
EXTT6=
EXTT7=
EXTT8=
EXTT9=
EXTT10=
EXTT11=
EXTT12=
EXTT13=
EXTT14=
PLAYORDER=
